<svg xmlns="http://www.w3.org/2000/svg" width="56" height="56" viewBox="0 0 56 56" fill="none">
  <path d="M19.318 25.2442C19.6148 24.9258 19.7763 24.5045 19.7687 24.0693C19.761 23.6341 19.5847 23.2188 19.2769 22.911C18.9691 22.6032 18.5538 22.4269 18.1186 22.4192C17.6833 22.4115 17.2621 22.5731 16.9436 22.8698L10.7836 29.0298C9.69806 30.0527 8.82877 31.283 8.22722 32.6479C7.62568 34.0128 7.30411 35.4845 7.28155 36.9759C7.25899 38.4673 7.53591 39.9481 8.0959 41.3305C8.65589 42.713 9.48758 43.969 10.5417 45.0243C11.5959 46.0796 12.851 46.9126 14.2329 47.4741C15.6147 48.0355 17.0952 48.314 18.5866 48.2931C20.078 48.2721 21.5501 47.9521 22.9156 47.352C24.2811 46.7519 25.5124 45.8839 26.5364 44.7994L32.6964 38.6394C32.9932 38.321 33.1547 37.8997 33.1471 37.4645C33.1394 37.0293 32.9631 36.614 32.6553 36.3062C32.3475 35.9984 31.9322 35.8221 31.497 35.8144C31.0617 35.8067 30.6405 35.9683 30.322 36.265L24.162 42.425C22.6948 43.8541 20.7238 44.6477 18.6757 44.6342C16.6276 44.6207 14.6672 43.8011 13.219 42.3529C11.7707 40.9046 10.9511 38.9443 10.9376 36.8962C10.9241 34.8481 11.7178 32.8771 13.1468 31.4098L19.318 25.2442Z" fill="white"/>
  <path d="M45.0329 10.5388C42.9407 8.45182 40.1061 7.27979 37.1509 7.27979C34.1957 7.27979 31.3612 8.45182 29.2689 10.5388L23.1089 16.6988C22.9439 16.8526 22.8115 17.0381 22.7197 17.2442C22.6278 17.4503 22.5785 17.6727 22.5745 17.8983C22.5705 18.1239 22.612 18.348 22.6965 18.5571C22.781 18.7663 22.9067 18.9564 23.0663 19.1159C23.2258 19.2754 23.4158 19.4012 23.625 19.4857C23.8342 19.5702 24.0583 19.6117 24.2839 19.6077C24.5094 19.6037 24.7319 19.5543 24.938 19.4625C25.144 19.3707 25.3295 19.2383 25.4833 19.0732L31.6433 12.9132C33.1106 11.4842 35.0816 10.6905 37.1297 10.7041C39.1777 10.7176 41.1381 11.5372 42.5864 12.9854C44.0346 14.4337 44.8542 16.394 44.8677 18.4421C44.8812 20.4902 44.0876 22.4612 42.6585 23.9284L36.4985 30.0884C36.3335 30.2422 36.2011 30.4277 36.1093 30.6338C36.0174 30.8399 35.9681 31.0623 35.9641 31.2879C35.9601 31.5135 36.0016 31.7376 36.0861 31.9467C36.1706 32.1559 36.2964 32.346 36.4559 32.5055C36.6154 32.665 36.8054 32.7908 37.0146 32.8753C37.2238 32.9598 37.4479 33.0013 37.6735 32.9973C37.899 32.9933 38.1215 32.9439 38.3276 32.8521C38.5336 32.7603 38.7191 32.6279 38.8729 32.4628L45.0329 26.3028C47.1199 24.2106 48.292 21.376 48.292 18.4208C48.292 15.4657 47.1199 12.6311 45.0329 10.5388Z" fill="white"/>
  <path d="M22.8964 35.0499L35.2836 22.6627C35.5804 22.3442 35.7419 21.923 35.7342 21.4878C35.7266 21.0525 35.5502 20.6373 35.2424 20.3295C34.9346 20.0217 34.5194 19.8453 34.0841 19.8377C33.6489 19.83 33.2277 19.9915 32.9092 20.2883L20.522 32.6755C20.357 32.8293 20.2246 33.0148 20.1327 33.2209C20.0409 33.4269 19.9915 33.6494 19.9876 33.875C19.9836 34.1005 20.0251 34.3246 20.1096 34.5338C20.1941 34.743 20.3198 34.933 20.4794 35.0925C20.6389 35.2521 20.8289 35.3778 21.0381 35.4623C21.2473 35.5468 21.4714 35.5883 21.6969 35.5843C21.9225 35.5804 22.145 35.531 22.3511 35.4392C22.5571 35.3473 22.7426 35.215 22.8964 35.0499Z" fill="white"/>
</svg>