<svg xmlns="http://www.w3.org/2000/svg" width="56" height="56" viewBox="0 0 56 56" fill="none">
  <path d="M19.318 24.9645C19.6148 24.646 19.7763 24.2248 19.7687 23.7895C19.761 23.3543 19.5847 22.939 19.2769 22.6312C18.9691 22.3234 18.5538 22.1471 18.1186 22.1394C17.6833 22.1317 17.2621 22.2933 16.9436 22.5901L10.7836 28.7501C9.69806 29.773 8.82877 31.0033 8.22722 32.3682C7.62568 33.733 7.30411 35.2048 7.28155 36.6961C7.25899 38.1875 7.53591 39.6683 8.0959 41.0508C8.65589 42.4332 9.48758 43.6893 10.5417 44.7445C11.5959 45.7998 12.851 46.6328 14.2329 47.1943C15.6147 47.7557 17.0952 48.0342 18.5866 48.0133C20.078 47.9923 21.5501 47.6723 22.9156 47.0722C24.2811 46.4721 25.5124 45.6041 26.5364 44.5197L32.6964 38.3597C32.9932 38.0412 33.1547 37.62 33.1471 37.1847C33.1394 36.7495 32.9631 36.3342 32.6553 36.0264C32.3475 35.7186 31.9322 35.5423 31.497 35.5346C31.0617 35.5269 30.6405 35.6885 30.322 35.9853L24.162 42.1453C22.6948 43.5743 20.7238 44.368 18.6757 44.3544C16.6276 44.3409 14.6672 43.5213 13.219 42.0731C11.7707 40.6248 10.9511 38.6645 10.9376 36.6164C10.9241 34.5683 11.7178 32.5973 13.1468 31.1301L19.318 24.9645Z" fill="#12182B"/>
  <path d="M45.0329 10.2591C42.9407 8.17204 40.1061 7 37.1509 7C34.1957 7 31.3612 8.17204 29.2689 10.2591L23.1089 16.4191C22.9439 16.5729 22.8115 16.7583 22.7197 16.9644C22.6278 17.1705 22.5785 17.393 22.5745 17.6185C22.5705 17.8441 22.612 18.0682 22.6965 18.2774C22.781 18.4865 22.9067 18.6766 23.0663 18.8361C23.2258 18.9956 23.4158 19.1214 23.625 19.2059C23.8342 19.2904 24.0583 19.3319 24.2839 19.3279C24.5094 19.3239 24.7319 19.2745 24.938 19.1827C25.144 19.0909 25.3295 18.9585 25.4833 18.7935L31.6433 12.6335C33.1106 11.2044 35.0816 10.4108 37.1297 10.4243C39.1777 10.4378 41.1381 11.2574 42.5864 12.7056C44.0346 14.1539 44.8542 16.1142 44.8677 18.1623C44.8812 20.2104 44.0876 22.1814 42.6585 23.6487L36.4985 29.8087C36.3335 29.9625 36.2011 30.1479 36.1093 30.354C36.0174 30.5601 35.9681 30.7826 35.9641 31.0081C35.9601 31.2337 36.0016 31.4578 36.0861 31.667C36.1706 31.8761 36.2964 32.0662 36.4559 32.2257C36.6154 32.3852 36.8054 32.511 37.0146 32.5955C37.2238 32.68 37.4479 32.7215 37.6735 32.7175C37.899 32.7135 38.1215 32.6642 38.3276 32.5723C38.5336 32.4805 38.7191 32.3481 38.8729 32.1831L45.0329 26.0231C47.1199 23.9308 48.292 21.0962 48.292 18.1411C48.292 15.1859 47.1199 12.3513 45.0329 10.2591Z" fill="#12182B"/>
  <path d="M22.8964 34.7701L35.2836 22.3829C35.5804 22.0644 35.7419 21.6432 35.7342 21.208C35.7266 20.7727 35.5502 20.3575 35.2424 20.0497C34.9346 19.7419 34.5194 19.5656 34.0841 19.5579C33.6489 19.5502 33.2277 19.7118 32.9092 20.0085L20.522 32.3957C20.357 32.5495 20.2246 32.735 20.1327 32.9411C20.0409 33.1471 19.9915 33.3696 19.9876 33.5952C19.9836 33.8208 20.0251 34.0448 20.1096 34.254C20.1941 34.4632 20.3198 34.6532 20.4794 34.8128C20.6389 34.9723 20.8289 35.0981 21.0381 35.1825C21.2473 35.267 21.4714 35.3085 21.6969 35.3046C21.9225 35.3006 22.145 35.2512 22.3511 35.1594C22.5571 35.0676 22.7426 34.9352 22.8964 34.7701Z" fill="#12182B"/>
</svg>